<mxfile host="app.diagrams.net" modified="2023-01-29T12:59:22.202Z" agent="5.0 (Windows NT 10.0; Win64; x64) AppleWebKit/537.36 (KHTML, like Gecko) Chrome/109.0.0.0 Safari/537.36" etag="xgH4DRf-SxlcQ0Lo0-0X" version="20.8.13" type="github">
  <diagram name="Page-1" id="c7558073-3199-34d8-9f00-42111426c3f3">
    <mxGraphModel dx="2256" dy="549" grid="1" gridSize="10" guides="1" tooltips="1" connect="1" arrows="1" fold="1" page="1" pageScale="1" pageWidth="826" pageHeight="1169" background="none" math="0" shadow="0">
      <root>
        <mxCell id="0" />
        <mxCell id="1" parent="0" />
        <mxCell id="MkItr3fGSmLbSDY-v6VV-119" value="" style="rounded=1;whiteSpace=wrap;html=1;strokeWidth=1;fontSize=16;fillColor=none;fontStyle=0;dashed=1;" vertex="1" parent="1">
          <mxGeometry x="280" y="140" width="160" height="210" as="geometry" />
        </mxCell>
        <mxCell id="MkItr3fGSmLbSDY-v6VV-110" style="edgeStyle=orthogonalEdgeStyle;rounded=0;orthogonalLoop=1;jettySize=auto;html=1;exitX=0.5;exitY=0;exitDx=0;exitDy=0;strokeWidth=1;fontSize=20;entryX=0.495;entryY=0.93;entryDx=0;entryDy=0;entryPerimeter=0;endArrow=blockThin;endFill=1;fontStyle=0" edge="1" parent="1" source="14" target="MkItr3fGSmLbSDY-v6VV-109">
          <mxGeometry relative="1" as="geometry" />
        </mxCell>
        <mxCell id="MkItr3fGSmLbSDY-v6VV-113" style="edgeStyle=orthogonalEdgeStyle;rounded=0;orthogonalLoop=1;jettySize=auto;html=1;exitX=0.5;exitY=0;exitDx=0;exitDy=0;entryX=0;entryY=0.5;entryDx=0;entryDy=0;strokeWidth=1;fontSize=20;endArrow=blockThin;endFill=1;fontStyle=0" edge="1" parent="1" source="14" target="MkItr3fGSmLbSDY-v6VV-111">
          <mxGeometry relative="1" as="geometry">
            <Array as="points">
              <mxPoint x="390" y="230" />
              <mxPoint x="330" y="230" />
              <mxPoint x="330" y="160" />
            </Array>
          </mxGeometry>
        </mxCell>
        <mxCell id="14" value="Add &amp; Norm" style="whiteSpace=wrap;align=center;verticalAlign=middle;fontStyle=0;strokeWidth=1;fillColor=#FFFFCC" parent="1" vertex="1">
          <mxGeometry x="350" y="240" width="80" height="20" as="geometry" />
        </mxCell>
        <mxCell id="MkItr3fGSmLbSDY-v6VV-99" style="edgeStyle=orthogonalEdgeStyle;rounded=0;orthogonalLoop=1;jettySize=auto;html=1;exitX=0.5;exitY=0;exitDx=0;exitDy=0;entryX=0.5;entryY=1;entryDx=0;entryDy=0;strokeWidth=1;endArrow=blockThin;endFill=1;fontStyle=0" edge="1" parent="1" source="MkItr3fGSmLbSDY-v6VV-98" target="14">
          <mxGeometry relative="1" as="geometry" />
        </mxCell>
        <mxCell id="MkItr3fGSmLbSDY-v6VV-98" value="Multi-Head Attention" style="whiteSpace=wrap;align=center;verticalAlign=middle;fontStyle=0;strokeWidth=1;fillColor=#fad7ac;strokeColor=#000000;" vertex="1" parent="1">
          <mxGeometry x="350" y="270" width="80" height="40" as="geometry" />
        </mxCell>
        <mxCell id="MkItr3fGSmLbSDY-v6VV-104" style="edgeStyle=orthogonalEdgeStyle;rounded=0;orthogonalLoop=1;jettySize=auto;html=1;exitX=0.5;exitY=0;exitDx=0;exitDy=0;entryX=0.5;entryY=1;entryDx=0;entryDy=0;fontSize=20;strokeWidth=1;endArrow=blockThin;endFill=1;fontStyle=0" edge="1" parent="1" source="MkItr3fGSmLbSDY-v6VV-100" target="MkItr3fGSmLbSDY-v6VV-102">
          <mxGeometry relative="1" as="geometry" />
        </mxCell>
        <mxCell id="MkItr3fGSmLbSDY-v6VV-100" value="Input Embedding" style="whiteSpace=wrap;align=center;verticalAlign=middle;fontStyle=0;strokeWidth=1;fillColor=#fad9d5;strokeColor=#000000;" vertex="1" parent="1">
          <mxGeometry x="140" y="230" width="80" height="30" as="geometry" />
        </mxCell>
        <mxCell id="MkItr3fGSmLbSDY-v6VV-114" style="edgeStyle=orthogonalEdgeStyle;rounded=0;orthogonalLoop=1;jettySize=auto;html=1;exitX=0.5;exitY=0;exitDx=0;exitDy=0;strokeWidth=1;fontSize=20;endArrow=blockThin;endFill=1;fontStyle=0" edge="1" parent="1" target="MkItr3fGSmLbSDY-v6VV-98">
          <mxGeometry relative="1" as="geometry">
            <mxPoint x="390" y="350" as="sourcePoint" />
          </mxGeometry>
        </mxCell>
        <mxCell id="MkItr3fGSmLbSDY-v6VV-115" style="edgeStyle=orthogonalEdgeStyle;rounded=0;orthogonalLoop=1;jettySize=auto;html=1;exitX=0.5;exitY=0;exitDx=0;exitDy=0;entryX=0.75;entryY=1;entryDx=0;entryDy=0;strokeWidth=1;fontSize=20;endArrow=blockThin;endFill=1;fontStyle=0" edge="1" parent="1" target="MkItr3fGSmLbSDY-v6VV-98">
          <mxGeometry relative="1" as="geometry">
            <mxPoint x="390" y="350" as="sourcePoint" />
            <Array as="points">
              <mxPoint x="390" y="330" />
              <mxPoint x="410" y="330" />
            </Array>
          </mxGeometry>
        </mxCell>
        <mxCell id="MkItr3fGSmLbSDY-v6VV-116" style="edgeStyle=orthogonalEdgeStyle;rounded=0;orthogonalLoop=1;jettySize=auto;html=1;exitX=0.5;exitY=0;exitDx=0;exitDy=0;entryX=0.25;entryY=1;entryDx=0;entryDy=0;strokeWidth=1;fontSize=20;endArrow=blockThin;endFill=1;fontStyle=0" edge="1" parent="1" source="MkItr3fGSmLbSDY-v6VV-101" target="MkItr3fGSmLbSDY-v6VV-98">
          <mxGeometry relative="1" as="geometry">
            <mxPoint x="390" y="350" as="sourcePoint" />
            <Array as="points">
              <mxPoint x="180" y="130" />
              <mxPoint x="240" y="130" />
              <mxPoint x="240" y="360" />
              <mxPoint x="390" y="360" />
              <mxPoint x="390" y="330" />
              <mxPoint x="370" y="330" />
            </Array>
          </mxGeometry>
        </mxCell>
        <mxCell id="MkItr3fGSmLbSDY-v6VV-117" style="edgeStyle=orthogonalEdgeStyle;rounded=0;orthogonalLoop=1;jettySize=auto;html=1;exitX=0.5;exitY=0;exitDx=0;exitDy=0;entryX=0;entryY=0.5;entryDx=0;entryDy=0;strokeWidth=1;fontSize=20;endArrow=blockThin;endFill=1;fontStyle=0" edge="1" parent="1" source="MkItr3fGSmLbSDY-v6VV-101" target="14">
          <mxGeometry relative="1" as="geometry">
            <mxPoint x="390" y="350" as="sourcePoint" />
            <Array as="points">
              <mxPoint x="180" y="130" />
              <mxPoint x="240" y="130" />
              <mxPoint x="240" y="360" />
              <mxPoint x="390" y="360" />
              <mxPoint x="390" y="340" />
              <mxPoint x="330" y="340" />
              <mxPoint x="330" y="250" />
            </Array>
          </mxGeometry>
        </mxCell>
        <mxCell id="MkItr3fGSmLbSDY-v6VV-101" value="&lt;font style=&quot;font-size: 16px;&quot;&gt;+&lt;/font&gt;" style="ellipse;whiteSpace=wrap;html=1;aspect=fixed;strokeColor=#000000;strokeWidth=1;fontStyle=0" vertex="1" parent="1">
          <mxGeometry x="170" y="140" width="20" height="20" as="geometry" />
        </mxCell>
        <mxCell id="MkItr3fGSmLbSDY-v6VV-106" style="edgeStyle=orthogonalEdgeStyle;rounded=0;orthogonalLoop=1;jettySize=auto;html=1;exitX=0.5;exitY=0;exitDx=0;exitDy=0;fontSize=20;strokeWidth=1;endArrow=blockThin;endFill=1;fontStyle=0" edge="1" parent="1" source="MkItr3fGSmLbSDY-v6VV-102" target="MkItr3fGSmLbSDY-v6VV-101">
          <mxGeometry relative="1" as="geometry" />
        </mxCell>
        <mxCell id="MkItr3fGSmLbSDY-v6VV-102" value="Positional Encoding" style="whiteSpace=wrap;align=center;verticalAlign=middle;fontStyle=0;strokeWidth=1;fillColor=#fad9d5;strokeColor=#000000;" vertex="1" parent="1">
          <mxGeometry x="140" y="180" width="80" height="30" as="geometry" />
        </mxCell>
        <mxCell id="MkItr3fGSmLbSDY-v6VV-107" value="" style="edgeStyle=segmentEdgeStyle;endArrow=blockThin;html=1;curved=0;rounded=0;endSize=8;startSize=8;fontSize=20;exitX=0.5;exitY=0;exitDx=0;exitDy=0;entryX=0;entryY=0.5;entryDx=0;entryDy=0;strokeWidth=1;endFill=1;fontStyle=0" edge="1" parent="1" source="MkItr3fGSmLbSDY-v6VV-100" target="MkItr3fGSmLbSDY-v6VV-101">
          <mxGeometry width="50" height="50" relative="1" as="geometry">
            <mxPoint x="180" y="270" as="sourcePoint" />
            <mxPoint x="380" y="250" as="targetPoint" />
            <Array as="points">
              <mxPoint x="180" y="220" />
              <mxPoint x="120" y="220" />
              <mxPoint x="120" y="150" />
            </Array>
          </mxGeometry>
        </mxCell>
        <mxCell id="MkItr3fGSmLbSDY-v6VV-141" style="edgeStyle=orthogonalEdgeStyle;rounded=0;orthogonalLoop=1;jettySize=auto;html=1;exitX=0.5;exitY=0;exitDx=0;exitDy=0;entryX=0.498;entryY=0.906;entryDx=0;entryDy=0;entryPerimeter=0;strokeWidth=1;fontSize=12;endArrow=blockThin;endFill=1;" edge="1" parent="1" source="MkItr3fGSmLbSDY-v6VV-108" target="MkItr3fGSmLbSDY-v6VV-140">
          <mxGeometry relative="1" as="geometry" />
        </mxCell>
        <mxCell id="MkItr3fGSmLbSDY-v6VV-108" value="Output Embedding" style="whiteSpace=wrap;align=center;verticalAlign=middle;fontStyle=0;strokeWidth=1;fillColor=#fad9d5;strokeColor=#000000;" vertex="1" parent="1">
          <mxGeometry x="492.5" y="255" width="80" height="30" as="geometry" />
        </mxCell>
        <mxCell id="MkItr3fGSmLbSDY-v6VV-112" style="edgeStyle=orthogonalEdgeStyle;rounded=0;orthogonalLoop=1;jettySize=auto;html=1;exitX=0.5;exitY=0;exitDx=0;exitDy=0;strokeWidth=1;fontSize=20;endArrow=blockThin;endFill=1;fontStyle=0" edge="1" parent="1" source="MkItr3fGSmLbSDY-v6VV-109" target="MkItr3fGSmLbSDY-v6VV-111">
          <mxGeometry relative="1" as="geometry" />
        </mxCell>
        <mxCell id="MkItr3fGSmLbSDY-v6VV-109" value="Feed Forward" style="whiteSpace=wrap;align=center;verticalAlign=middle;fontStyle=0;strokeWidth=1;fillColor=#CCFFFF;" vertex="1" parent="1">
          <mxGeometry x="350" y="180" width="80" height="40" as="geometry" />
        </mxCell>
        <mxCell id="MkItr3fGSmLbSDY-v6VV-130" style="edgeStyle=orthogonalEdgeStyle;rounded=0;orthogonalLoop=1;jettySize=auto;html=1;exitX=0.5;exitY=0;exitDx=0;exitDy=0;strokeWidth=1;fontSize=12;endArrow=blockThin;endFill=1;fontStyle=0;entryX=0.5;entryY=1;entryDx=0;entryDy=0;" edge="1" parent="1" source="MkItr3fGSmLbSDY-v6VV-111" target="MkItr3fGSmLbSDY-v6VV-129">
          <mxGeometry relative="1" as="geometry">
            <mxPoint x="600" y="380" as="targetPoint" />
            <Array as="points">
              <mxPoint x="390" y="130" />
              <mxPoint x="460" y="130" />
              <mxPoint x="460" y="360" />
              <mxPoint x="533" y="360" />
              <mxPoint x="533" y="330" />
            </Array>
          </mxGeometry>
        </mxCell>
        <mxCell id="MkItr3fGSmLbSDY-v6VV-111" value="Add &amp; Norm" style="whiteSpace=wrap;align=center;verticalAlign=middle;fontStyle=0;strokeWidth=1;fillColor=#FFFFCC" vertex="1" parent="1">
          <mxGeometry x="350" y="150" width="80" height="20" as="geometry" />
        </mxCell>
        <mxCell id="MkItr3fGSmLbSDY-v6VV-121" value="Transformer-Encoder" style="text;html=1;strokeColor=none;fillColor=none;align=center;verticalAlign=middle;whiteSpace=wrap;rounded=0;fontSize=12;horizontal=0;fontStyle=0" vertex="1" parent="1">
          <mxGeometry x="270" y="185" width="60" height="30" as="geometry" />
        </mxCell>
        <mxCell id="MkItr3fGSmLbSDY-v6VV-122" value="Nx" style="text;html=1;strokeColor=none;fillColor=none;align=center;verticalAlign=middle;whiteSpace=wrap;rounded=0;fontSize=12;fontStyle=0" vertex="1" parent="1">
          <mxGeometry x="250" y="280" width="30" height="30" as="geometry" />
        </mxCell>
        <mxCell id="MkItr3fGSmLbSDY-v6VV-131" style="edgeStyle=orthogonalEdgeStyle;rounded=0;orthogonalLoop=1;jettySize=auto;html=1;exitX=0.5;exitY=0;exitDx=0;exitDy=0;entryX=0.5;entryY=1;entryDx=0;entryDy=0;strokeWidth=1;fontSize=12;endArrow=blockThin;endFill=1;fontStyle=0" edge="1" parent="1" source="MkItr3fGSmLbSDY-v6VV-129" target="MkItr3fGSmLbSDY-v6VV-108">
          <mxGeometry relative="1" as="geometry" />
        </mxCell>
        <mxCell id="MkItr3fGSmLbSDY-v6VV-129" value="FC" style="whiteSpace=wrap;align=center;verticalAlign=middle;fontStyle=0;strokeWidth=1;fillColor=#d0cee2;strokeColor=#000000;" vertex="1" parent="1">
          <mxGeometry x="492.5" y="300" width="80" height="30" as="geometry" />
        </mxCell>
        <mxCell id="MkItr3fGSmLbSDY-v6VV-136" style="edgeStyle=orthogonalEdgeStyle;rounded=0;orthogonalLoop=1;jettySize=auto;html=1;exitX=0.5;exitY=0;exitDx=0;exitDy=0;entryX=0.5;entryY=1;entryDx=0;entryDy=0;strokeWidth=1;fontSize=12;endArrow=blockThin;endFill=1;" edge="1" parent="1" source="MkItr3fGSmLbSDY-v6VV-133" target="MkItr3fGSmLbSDY-v6VV-134">
          <mxGeometry relative="1" as="geometry" />
        </mxCell>
        <mxCell id="MkItr3fGSmLbSDY-v6VV-133" value="Input" style="shape=parallelogram;perimeter=parallelogramPerimeter;whiteSpace=wrap;html=1;fixedSize=1;strokeColor=#000000;strokeWidth=1;fontSize=12;fillColor=#fad9d5;fontStyle=0" vertex="1" parent="1">
          <mxGeometry x="135" y="330" width="85" height="30" as="geometry" />
        </mxCell>
        <mxCell id="MkItr3fGSmLbSDY-v6VV-137" style="edgeStyle=orthogonalEdgeStyle;rounded=0;orthogonalLoop=1;jettySize=auto;html=1;exitX=0.5;exitY=0;exitDx=0;exitDy=0;entryX=0.5;entryY=1;entryDx=0;entryDy=0;strokeWidth=1;fontSize=12;endArrow=blockThin;endFill=1;" edge="1" parent="1" source="MkItr3fGSmLbSDY-v6VV-134" target="MkItr3fGSmLbSDY-v6VV-100">
          <mxGeometry relative="1" as="geometry" />
        </mxCell>
        <mxCell id="MkItr3fGSmLbSDY-v6VV-134" value="Tokenize &amp; Repeat" style="whiteSpace=wrap;align=center;verticalAlign=middle;fontStyle=0;strokeWidth=1;fillColor=#fad9d5;strokeColor=#000000;" vertex="1" parent="1">
          <mxGeometry x="140" y="280" width="80" height="30" as="geometry" />
        </mxCell>
        <mxCell id="MkItr3fGSmLbSDY-v6VV-135" value="G&lt;sub style=&quot;border-color: var(--border-color);&quot;&gt;1&lt;/sub&gt;, G&lt;sub style=&quot;border-color: var(--border-color);&quot;&gt;2&lt;/sub&gt;, ..., G&lt;sub style=&quot;border-color: var(--border-color);&quot;&gt;n&lt;/sub&gt;" style="text;html=1;strokeColor=none;fillColor=none;align=center;verticalAlign=middle;whiteSpace=wrap;rounded=0;fontSize=12;" vertex="1" parent="1">
          <mxGeometry x="-25" y="330" width="90" height="30" as="geometry" />
        </mxCell>
        <mxCell id="MkItr3fGSmLbSDY-v6VV-138" value="&amp;lt;LANG&amp;gt;, G&lt;sub style=&quot;border-color: var(--border-color);&quot;&gt;1&lt;/sub&gt;, G&lt;sub style=&quot;border-color: var(--border-color);&quot;&gt;1&lt;/sub&gt;, G&lt;sub style=&quot;border-color: var(--border-color);&quot;&gt;1&lt;/sub&gt;, G&lt;sub style=&quot;border-color: var(--border-color);&quot;&gt;2&lt;/sub&gt;, G&lt;sub style=&quot;border-color: var(--border-color);&quot;&gt;2&lt;/sub&gt;, G&lt;sub style=&quot;border-color: var(--border-color);&quot;&gt;2&lt;/sub&gt;,&amp;nbsp;..., G&lt;sub style=&quot;border-color: var(--border-color);&quot;&gt;n&lt;/sub&gt;, G&lt;sub style=&quot;border-color: var(--border-color);&quot;&gt;n&lt;/sub&gt;,&amp;nbsp;G&lt;sub style=&quot;border-color: var(--border-color);&quot;&gt;n&lt;/sub&gt;, &amp;lt;END&amp;gt;" style="text;html=1;strokeColor=none;fillColor=none;align=center;verticalAlign=middle;whiteSpace=wrap;rounded=0;fontSize=12;" vertex="1" parent="1">
          <mxGeometry x="-80" y="280" width="200" height="30" as="geometry" />
        </mxCell>
        <mxCell id="MkItr3fGSmLbSDY-v6VV-143" style="edgeStyle=orthogonalEdgeStyle;rounded=0;orthogonalLoop=1;jettySize=auto;html=1;exitX=0.5;exitY=0;exitDx=0;exitDy=0;strokeWidth=1;fontSize=12;endArrow=blockThin;endFill=1;" edge="1" parent="1" source="MkItr3fGSmLbSDY-v6VV-140" target="MkItr3fGSmLbSDY-v6VV-142">
          <mxGeometry relative="1" as="geometry" />
        </mxCell>
        <mxCell id="MkItr3fGSmLbSDY-v6VV-140" value="Softmax &amp; Deduplicate &amp; Trim" style="whiteSpace=wrap;align=center;verticalAlign=middle;fontStyle=0;strokeWidth=1;fillColor=#fad9d5;strokeColor=#000000;" vertex="1" parent="1">
          <mxGeometry x="492.5" y="195" width="80" height="40" as="geometry" />
        </mxCell>
        <mxCell id="MkItr3fGSmLbSDY-v6VV-142" value="Output" style="shape=parallelogram;perimeter=parallelogramPerimeter;whiteSpace=wrap;html=1;fixedSize=1;strokeColor=#000000;strokeWidth=1;fontSize=12;fillColor=#fad9d5;fontStyle=0" vertex="1" parent="1">
          <mxGeometry x="490" y="145" width="85" height="30" as="geometry" />
        </mxCell>
        <mxCell id="MkItr3fGSmLbSDY-v6VV-144" value="P&lt;sub style=&quot;border-color: var(--border-color);&quot;&gt;1&lt;/sub&gt;, P&lt;sub style=&quot;border-color: var(--border-color);&quot;&gt;2&lt;/sub&gt;, ..., P&lt;sub style=&quot;border-color: var(--border-color);&quot;&gt;m&lt;/sub&gt;" style="text;html=1;strokeColor=none;fillColor=none;align=center;verticalAlign=middle;whiteSpace=wrap;rounded=0;fontSize=12;" vertex="1" parent="1">
          <mxGeometry x="626.25" y="145" width="90" height="30" as="geometry" />
        </mxCell>
        <mxCell id="MkItr3fGSmLbSDY-v6VV-145" value="&amp;lt;LANG&amp;gt;, P&lt;sub style=&quot;border-color: var(--border-color);&quot;&gt;1&lt;/sub&gt;, P&lt;sub style=&quot;border-color: var(--border-color);&quot;&gt;1&lt;/sub&gt;,&amp;nbsp;P&lt;sub style=&quot;border-color: var(--border-color);&quot;&gt;2&lt;/sub&gt;, ..., P&lt;sub style=&quot;border-color: var(--border-color);&quot;&gt;m&lt;/sub&gt;, &amp;lt;END&amp;gt;, P&lt;sub&gt;m+1&lt;/sub&gt;, P&lt;sub&gt;m+2&lt;/sub&gt;, ..." style="text;html=1;strokeColor=none;fillColor=none;align=center;verticalAlign=middle;whiteSpace=wrap;rounded=0;fontSize=12;" vertex="1" parent="1">
          <mxGeometry x="592.5" y="195" width="157.5" height="30" as="geometry" />
        </mxCell>
        <mxCell id="MkItr3fGSmLbSDY-v6VV-146" value="" style="rounded=1;whiteSpace=wrap;html=1;strokeWidth=1;fontSize=16;fillColor=none;fontStyle=0;dashed=1;" vertex="1" parent="1">
          <mxGeometry x="280" y="510" width="160" height="210" as="geometry" />
        </mxCell>
        <mxCell id="MkItr3fGSmLbSDY-v6VV-147" style="edgeStyle=orthogonalEdgeStyle;rounded=0;orthogonalLoop=1;jettySize=auto;html=1;exitX=0.5;exitY=0;exitDx=0;exitDy=0;strokeWidth=1;fontSize=20;entryX=0.495;entryY=0.93;entryDx=0;entryDy=0;entryPerimeter=0;endArrow=blockThin;endFill=1;fontStyle=0" edge="1" parent="1" source="MkItr3fGSmLbSDY-v6VV-149" target="MkItr3fGSmLbSDY-v6VV-165">
          <mxGeometry relative="1" as="geometry" />
        </mxCell>
        <mxCell id="MkItr3fGSmLbSDY-v6VV-148" style="edgeStyle=orthogonalEdgeStyle;rounded=0;orthogonalLoop=1;jettySize=auto;html=1;exitX=0.5;exitY=0;exitDx=0;exitDy=0;entryX=0;entryY=0.5;entryDx=0;entryDy=0;strokeWidth=1;fontSize=20;endArrow=blockThin;endFill=1;fontStyle=0" edge="1" parent="1" source="MkItr3fGSmLbSDY-v6VV-149" target="MkItr3fGSmLbSDY-v6VV-167">
          <mxGeometry relative="1" as="geometry">
            <Array as="points">
              <mxPoint x="390" y="600" />
              <mxPoint x="330" y="600" />
              <mxPoint x="330" y="530" />
            </Array>
          </mxGeometry>
        </mxCell>
        <mxCell id="MkItr3fGSmLbSDY-v6VV-149" value="Add &amp; Norm" style="whiteSpace=wrap;align=center;verticalAlign=middle;fontStyle=0;strokeWidth=1;fillColor=#FFFFCC" vertex="1" parent="1">
          <mxGeometry x="350" y="610" width="80" height="20" as="geometry" />
        </mxCell>
        <mxCell id="MkItr3fGSmLbSDY-v6VV-150" style="edgeStyle=orthogonalEdgeStyle;rounded=0;orthogonalLoop=1;jettySize=auto;html=1;exitX=0.5;exitY=0;exitDx=0;exitDy=0;entryX=0.5;entryY=1;entryDx=0;entryDy=0;strokeWidth=1;endArrow=blockThin;endFill=1;fontStyle=0" edge="1" parent="1" source="MkItr3fGSmLbSDY-v6VV-151" target="MkItr3fGSmLbSDY-v6VV-149">
          <mxGeometry relative="1" as="geometry" />
        </mxCell>
        <mxCell id="MkItr3fGSmLbSDY-v6VV-151" value="Multi-Head Attention" style="whiteSpace=wrap;align=center;verticalAlign=middle;fontStyle=0;strokeWidth=1;fillColor=#fad7ac;strokeColor=#000000;" vertex="1" parent="1">
          <mxGeometry x="350" y="640" width="80" height="40" as="geometry" />
        </mxCell>
        <mxCell id="MkItr3fGSmLbSDY-v6VV-152" style="edgeStyle=orthogonalEdgeStyle;rounded=0;orthogonalLoop=1;jettySize=auto;html=1;exitX=0.5;exitY=0;exitDx=0;exitDy=0;entryX=0.5;entryY=1;entryDx=0;entryDy=0;fontSize=20;strokeWidth=1;endArrow=blockThin;endFill=1;fontStyle=0" edge="1" parent="1" source="MkItr3fGSmLbSDY-v6VV-153" target="MkItr3fGSmLbSDY-v6VV-160">
          <mxGeometry relative="1" as="geometry" />
        </mxCell>
        <mxCell id="MkItr3fGSmLbSDY-v6VV-153" value="Input Embedding" style="whiteSpace=wrap;align=center;verticalAlign=middle;fontStyle=0;strokeWidth=1;fillColor=#fad9d5;strokeColor=#000000;" vertex="1" parent="1">
          <mxGeometry x="140" y="600" width="80" height="30" as="geometry" />
        </mxCell>
        <mxCell id="MkItr3fGSmLbSDY-v6VV-154" style="edgeStyle=orthogonalEdgeStyle;rounded=0;orthogonalLoop=1;jettySize=auto;html=1;exitX=0.5;exitY=0;exitDx=0;exitDy=0;strokeWidth=1;fontSize=20;endArrow=blockThin;endFill=1;fontStyle=0" edge="1" parent="1" target="MkItr3fGSmLbSDY-v6VV-151">
          <mxGeometry relative="1" as="geometry">
            <mxPoint x="390" y="720" as="sourcePoint" />
          </mxGeometry>
        </mxCell>
        <mxCell id="MkItr3fGSmLbSDY-v6VV-155" style="edgeStyle=orthogonalEdgeStyle;rounded=0;orthogonalLoop=1;jettySize=auto;html=1;exitX=0.5;exitY=0;exitDx=0;exitDy=0;entryX=0.75;entryY=1;entryDx=0;entryDy=0;strokeWidth=1;fontSize=20;endArrow=blockThin;endFill=1;fontStyle=0" edge="1" parent="1" target="MkItr3fGSmLbSDY-v6VV-151">
          <mxGeometry relative="1" as="geometry">
            <mxPoint x="390" y="720" as="sourcePoint" />
            <Array as="points">
              <mxPoint x="390" y="700" />
              <mxPoint x="410" y="700" />
            </Array>
          </mxGeometry>
        </mxCell>
        <mxCell id="MkItr3fGSmLbSDY-v6VV-156" style="edgeStyle=orthogonalEdgeStyle;rounded=0;orthogonalLoop=1;jettySize=auto;html=1;exitX=0.5;exitY=0;exitDx=0;exitDy=0;entryX=0.25;entryY=1;entryDx=0;entryDy=0;strokeWidth=1;fontSize=20;endArrow=blockThin;endFill=1;fontStyle=0" edge="1" parent="1" source="MkItr3fGSmLbSDY-v6VV-158" target="MkItr3fGSmLbSDY-v6VV-151">
          <mxGeometry relative="1" as="geometry">
            <mxPoint x="390" y="720" as="sourcePoint" />
            <Array as="points">
              <mxPoint x="180" y="500" />
              <mxPoint x="240" y="500" />
              <mxPoint x="240" y="730" />
              <mxPoint x="390" y="730" />
              <mxPoint x="390" y="700" />
              <mxPoint x="370" y="700" />
            </Array>
          </mxGeometry>
        </mxCell>
        <mxCell id="MkItr3fGSmLbSDY-v6VV-157" style="edgeStyle=orthogonalEdgeStyle;rounded=0;orthogonalLoop=1;jettySize=auto;html=1;exitX=0.5;exitY=0;exitDx=0;exitDy=0;entryX=0;entryY=0.5;entryDx=0;entryDy=0;strokeWidth=1;fontSize=20;endArrow=blockThin;endFill=1;fontStyle=0" edge="1" parent="1" source="MkItr3fGSmLbSDY-v6VV-158" target="MkItr3fGSmLbSDY-v6VV-149">
          <mxGeometry relative="1" as="geometry">
            <mxPoint x="390" y="720" as="sourcePoint" />
            <Array as="points">
              <mxPoint x="180" y="500" />
              <mxPoint x="240" y="500" />
              <mxPoint x="240" y="730" />
              <mxPoint x="390" y="730" />
              <mxPoint x="390" y="710" />
              <mxPoint x="330" y="710" />
              <mxPoint x="330" y="620" />
            </Array>
          </mxGeometry>
        </mxCell>
        <mxCell id="MkItr3fGSmLbSDY-v6VV-158" value="&lt;font style=&quot;font-size: 16px;&quot;&gt;+&lt;/font&gt;" style="ellipse;whiteSpace=wrap;html=1;aspect=fixed;strokeColor=#000000;strokeWidth=1;fontStyle=0" vertex="1" parent="1">
          <mxGeometry x="170" y="510" width="20" height="20" as="geometry" />
        </mxCell>
        <mxCell id="MkItr3fGSmLbSDY-v6VV-159" style="edgeStyle=orthogonalEdgeStyle;rounded=0;orthogonalLoop=1;jettySize=auto;html=1;exitX=0.5;exitY=0;exitDx=0;exitDy=0;fontSize=20;strokeWidth=1;endArrow=blockThin;endFill=1;fontStyle=0" edge="1" parent="1" source="MkItr3fGSmLbSDY-v6VV-160" target="MkItr3fGSmLbSDY-v6VV-158">
          <mxGeometry relative="1" as="geometry" />
        </mxCell>
        <mxCell id="MkItr3fGSmLbSDY-v6VV-160" value="Positional Encoding" style="whiteSpace=wrap;align=center;verticalAlign=middle;fontStyle=0;strokeWidth=1;fillColor=#fad9d5;strokeColor=#000000;" vertex="1" parent="1">
          <mxGeometry x="140" y="550" width="80" height="30" as="geometry" />
        </mxCell>
        <mxCell id="MkItr3fGSmLbSDY-v6VV-161" value="" style="edgeStyle=segmentEdgeStyle;endArrow=blockThin;html=1;curved=0;rounded=0;endSize=8;startSize=8;fontSize=20;exitX=0.5;exitY=0;exitDx=0;exitDy=0;entryX=0;entryY=0.5;entryDx=0;entryDy=0;strokeWidth=1;endFill=1;fontStyle=0" edge="1" parent="1" source="MkItr3fGSmLbSDY-v6VV-153" target="MkItr3fGSmLbSDY-v6VV-158">
          <mxGeometry width="50" height="50" relative="1" as="geometry">
            <mxPoint x="180" y="640" as="sourcePoint" />
            <mxPoint x="380" y="620" as="targetPoint" />
            <Array as="points">
              <mxPoint x="180" y="590" />
              <mxPoint x="120" y="590" />
              <mxPoint x="120" y="520" />
            </Array>
          </mxGeometry>
        </mxCell>
        <mxCell id="MkItr3fGSmLbSDY-v6VV-162" style="edgeStyle=orthogonalEdgeStyle;rounded=0;orthogonalLoop=1;jettySize=auto;html=1;exitX=0.5;exitY=0;exitDx=0;exitDy=0;entryX=0.498;entryY=0.906;entryDx=0;entryDy=0;entryPerimeter=0;strokeWidth=1;fontSize=12;endArrow=blockThin;endFill=1;" edge="1" parent="1" source="MkItr3fGSmLbSDY-v6VV-163" target="MkItr3fGSmLbSDY-v6VV-179">
          <mxGeometry relative="1" as="geometry" />
        </mxCell>
        <mxCell id="MkItr3fGSmLbSDY-v6VV-163" value="Output Embedding" style="whiteSpace=wrap;align=center;verticalAlign=middle;fontStyle=0;strokeWidth=1;fillColor=#fad9d5;strokeColor=#000000;" vertex="1" parent="1">
          <mxGeometry x="712.5" y="625" width="80" height="30" as="geometry" />
        </mxCell>
        <mxCell id="MkItr3fGSmLbSDY-v6VV-164" style="edgeStyle=orthogonalEdgeStyle;rounded=0;orthogonalLoop=1;jettySize=auto;html=1;exitX=0.5;exitY=0;exitDx=0;exitDy=0;strokeWidth=1;fontSize=20;endArrow=blockThin;endFill=1;fontStyle=0" edge="1" parent="1" source="MkItr3fGSmLbSDY-v6VV-165" target="MkItr3fGSmLbSDY-v6VV-167">
          <mxGeometry relative="1" as="geometry" />
        </mxCell>
        <mxCell id="MkItr3fGSmLbSDY-v6VV-165" value="Feed Forward" style="whiteSpace=wrap;align=center;verticalAlign=middle;fontStyle=0;strokeWidth=1;fillColor=#CCFFFF;" vertex="1" parent="1">
          <mxGeometry x="350" y="550" width="80" height="40" as="geometry" />
        </mxCell>
        <mxCell id="MkItr3fGSmLbSDY-v6VV-205" style="edgeStyle=orthogonalEdgeStyle;rounded=0;orthogonalLoop=1;jettySize=auto;html=1;exitX=0.5;exitY=0;exitDx=0;exitDy=0;strokeWidth=1;fontSize=12;endArrow=blockThin;endFill=1;entryX=0.5;entryY=1;entryDx=0;entryDy=0;" edge="1" parent="1" source="MkItr3fGSmLbSDY-v6VV-167" target="MkItr3fGSmLbSDY-v6VV-200">
          <mxGeometry relative="1" as="geometry">
            <mxPoint x="460" y="850" as="targetPoint" />
            <Array as="points">
              <mxPoint x="390" y="500" />
              <mxPoint x="460" y="500" />
              <mxPoint x="460" y="780" />
              <mxPoint x="600" y="780" />
            </Array>
          </mxGeometry>
        </mxCell>
        <mxCell id="MkItr3fGSmLbSDY-v6VV-167" value="Add &amp; Norm" style="whiteSpace=wrap;align=center;verticalAlign=middle;fontStyle=0;strokeWidth=1;fillColor=#FFFFCC" vertex="1" parent="1">
          <mxGeometry x="350" y="520" width="80" height="20" as="geometry" />
        </mxCell>
        <mxCell id="MkItr3fGSmLbSDY-v6VV-168" value="Transformer-Encoder" style="text;html=1;strokeColor=none;fillColor=none;align=center;verticalAlign=middle;whiteSpace=wrap;rounded=0;fontSize=12;horizontal=0;fontStyle=0" vertex="1" parent="1">
          <mxGeometry x="270" y="555" width="60" height="30" as="geometry" />
        </mxCell>
        <mxCell id="MkItr3fGSmLbSDY-v6VV-169" value="(N-1)x" style="text;html=1;strokeColor=none;fillColor=none;align=center;verticalAlign=middle;whiteSpace=wrap;rounded=0;fontSize=12;fontStyle=0" vertex="1" parent="1">
          <mxGeometry x="240" y="650" width="40" height="30" as="geometry" />
        </mxCell>
        <mxCell id="MkItr3fGSmLbSDY-v6VV-170" style="edgeStyle=orthogonalEdgeStyle;rounded=0;orthogonalLoop=1;jettySize=auto;html=1;exitX=0.5;exitY=0;exitDx=0;exitDy=0;entryX=0.5;entryY=1;entryDx=0;entryDy=0;strokeWidth=1;fontSize=12;endArrow=blockThin;endFill=1;fontStyle=0" edge="1" parent="1" source="MkItr3fGSmLbSDY-v6VV-171" target="MkItr3fGSmLbSDY-v6VV-163">
          <mxGeometry relative="1" as="geometry" />
        </mxCell>
        <mxCell id="MkItr3fGSmLbSDY-v6VV-171" value="FC" style="whiteSpace=wrap;align=center;verticalAlign=middle;fontStyle=0;strokeWidth=1;fillColor=#d0cee2;strokeColor=#000000;" vertex="1" parent="1">
          <mxGeometry x="712.5" y="670" width="80" height="30" as="geometry" />
        </mxCell>
        <mxCell id="MkItr3fGSmLbSDY-v6VV-172" style="edgeStyle=orthogonalEdgeStyle;rounded=0;orthogonalLoop=1;jettySize=auto;html=1;exitX=0.5;exitY=0;exitDx=0;exitDy=0;entryX=0.5;entryY=1;entryDx=0;entryDy=0;strokeWidth=1;fontSize=12;endArrow=blockThin;endFill=1;" edge="1" parent="1" source="MkItr3fGSmLbSDY-v6VV-173" target="MkItr3fGSmLbSDY-v6VV-175">
          <mxGeometry relative="1" as="geometry" />
        </mxCell>
        <mxCell id="MkItr3fGSmLbSDY-v6VV-173" value="Input" style="shape=parallelogram;perimeter=parallelogramPerimeter;whiteSpace=wrap;html=1;fixedSize=1;strokeColor=#000000;strokeWidth=1;fontSize=12;fillColor=#fad9d5;fontStyle=0" vertex="1" parent="1">
          <mxGeometry x="135" y="700" width="85" height="30" as="geometry" />
        </mxCell>
        <mxCell id="MkItr3fGSmLbSDY-v6VV-174" style="edgeStyle=orthogonalEdgeStyle;rounded=0;orthogonalLoop=1;jettySize=auto;html=1;exitX=0.5;exitY=0;exitDx=0;exitDy=0;entryX=0.5;entryY=1;entryDx=0;entryDy=0;strokeWidth=1;fontSize=12;endArrow=blockThin;endFill=1;" edge="1" parent="1" source="MkItr3fGSmLbSDY-v6VV-175" target="MkItr3fGSmLbSDY-v6VV-153">
          <mxGeometry relative="1" as="geometry" />
        </mxCell>
        <mxCell id="MkItr3fGSmLbSDY-v6VV-175" value="Tokenize" style="whiteSpace=wrap;align=center;verticalAlign=middle;fontStyle=0;strokeWidth=1;fillColor=#fad9d5;strokeColor=#000000;" vertex="1" parent="1">
          <mxGeometry x="140" y="650" width="80" height="30" as="geometry" />
        </mxCell>
        <mxCell id="MkItr3fGSmLbSDY-v6VV-176" value="G&lt;sub style=&quot;border-color: var(--border-color);&quot;&gt;1&lt;/sub&gt;, G&lt;sub style=&quot;border-color: var(--border-color);&quot;&gt;2&lt;/sub&gt;, ..., G&lt;sub style=&quot;border-color: var(--border-color);&quot;&gt;n&lt;/sub&gt;" style="text;html=1;strokeColor=none;fillColor=none;align=center;verticalAlign=middle;whiteSpace=wrap;rounded=0;fontSize=12;" vertex="1" parent="1">
          <mxGeometry x="-25" y="700" width="90" height="30" as="geometry" />
        </mxCell>
        <mxCell id="MkItr3fGSmLbSDY-v6VV-177" value="&amp;lt;LANG&amp;gt;, G&lt;sub style=&quot;border-color: var(--border-color);&quot;&gt;1&lt;/sub&gt;, G&lt;sub style=&quot;border-color: var(--border-color);&quot;&gt;2&lt;/sub&gt;,&amp;nbsp;..., G&lt;sub style=&quot;border-color: var(--border-color);&quot;&gt;n&lt;/sub&gt;,&amp;nbsp;&amp;lt;END&amp;gt;" style="text;html=1;strokeColor=none;fillColor=none;align=center;verticalAlign=middle;whiteSpace=wrap;rounded=0;fontSize=12;" vertex="1" parent="1">
          <mxGeometry x="-80" y="650" width="200" height="30" as="geometry" />
        </mxCell>
        <mxCell id="MkItr3fGSmLbSDY-v6VV-178" style="edgeStyle=orthogonalEdgeStyle;rounded=0;orthogonalLoop=1;jettySize=auto;html=1;exitX=0.5;exitY=0;exitDx=0;exitDy=0;strokeWidth=1;fontSize=12;endArrow=blockThin;endFill=1;" edge="1" parent="1" source="MkItr3fGSmLbSDY-v6VV-179" target="MkItr3fGSmLbSDY-v6VV-180">
          <mxGeometry relative="1" as="geometry" />
        </mxCell>
        <mxCell id="MkItr3fGSmLbSDY-v6VV-179" value="Softmax &amp; Deduplicate &amp; Trim" style="whiteSpace=wrap;align=center;verticalAlign=middle;fontStyle=0;strokeWidth=1;fillColor=#fad9d5;strokeColor=#000000;" vertex="1" parent="1">
          <mxGeometry x="712.5" y="565" width="80" height="40" as="geometry" />
        </mxCell>
        <mxCell id="MkItr3fGSmLbSDY-v6VV-180" value="Output" style="shape=parallelogram;perimeter=parallelogramPerimeter;whiteSpace=wrap;html=1;fixedSize=1;strokeColor=#000000;strokeWidth=1;fontSize=12;fillColor=#fad9d5;fontStyle=0" vertex="1" parent="1">
          <mxGeometry x="710" y="515" width="85" height="30" as="geometry" />
        </mxCell>
        <mxCell id="MkItr3fGSmLbSDY-v6VV-181" value="P&lt;sub style=&quot;border-color: var(--border-color);&quot;&gt;1&lt;/sub&gt;, P&lt;sub style=&quot;border-color: var(--border-color);&quot;&gt;2&lt;/sub&gt;, ..., P&lt;sub style=&quot;border-color: var(--border-color);&quot;&gt;m&lt;/sub&gt;" style="text;html=1;strokeColor=none;fillColor=none;align=center;verticalAlign=middle;whiteSpace=wrap;rounded=0;fontSize=12;" vertex="1" parent="1">
          <mxGeometry x="846.25" y="515" width="90" height="30" as="geometry" />
        </mxCell>
        <mxCell id="MkItr3fGSmLbSDY-v6VV-182" value="&amp;lt;LANG&amp;gt;, P&lt;sub style=&quot;border-color: var(--border-color);&quot;&gt;1&lt;/sub&gt;, P&lt;sub style=&quot;border-color: var(--border-color);&quot;&gt;1&lt;/sub&gt;,&amp;nbsp;P&lt;sub style=&quot;border-color: var(--border-color);&quot;&gt;2&lt;/sub&gt;, ..., P&lt;sub style=&quot;border-color: var(--border-color);&quot;&gt;m&lt;/sub&gt;, &amp;lt;END&amp;gt;, P&lt;sub&gt;m+1&lt;/sub&gt;, P&lt;sub&gt;m+2&lt;/sub&gt;, ..." style="text;html=1;strokeColor=none;fillColor=none;align=center;verticalAlign=middle;whiteSpace=wrap;rounded=0;fontSize=12;" vertex="1" parent="1">
          <mxGeometry x="812.5" y="565" width="157.5" height="30" as="geometry" />
        </mxCell>
        <mxCell id="MkItr3fGSmLbSDY-v6VV-183" value="" style="rounded=1;whiteSpace=wrap;html=1;strokeWidth=1;fontSize=16;fillColor=none;fontStyle=0;dashed=1;" vertex="1" parent="1">
          <mxGeometry x="490" y="420" width="160" height="210" as="geometry" />
        </mxCell>
        <mxCell id="MkItr3fGSmLbSDY-v6VV-184" style="edgeStyle=orthogonalEdgeStyle;rounded=0;orthogonalLoop=1;jettySize=auto;html=1;exitX=0.5;exitY=0;exitDx=0;exitDy=0;strokeWidth=1;fontSize=20;entryX=0.495;entryY=0.93;entryDx=0;entryDy=0;entryPerimeter=0;endArrow=blockThin;endFill=1;fontStyle=0" edge="1" parent="1" source="MkItr3fGSmLbSDY-v6VV-186" target="MkItr3fGSmLbSDY-v6VV-192">
          <mxGeometry relative="1" as="geometry" />
        </mxCell>
        <mxCell id="MkItr3fGSmLbSDY-v6VV-185" style="edgeStyle=orthogonalEdgeStyle;rounded=0;orthogonalLoop=1;jettySize=auto;html=1;exitX=0.5;exitY=0;exitDx=0;exitDy=0;entryX=0;entryY=0.5;entryDx=0;entryDy=0;strokeWidth=1;fontSize=20;endArrow=blockThin;endFill=1;fontStyle=0" edge="1" parent="1" source="MkItr3fGSmLbSDY-v6VV-186" target="MkItr3fGSmLbSDY-v6VV-193">
          <mxGeometry relative="1" as="geometry">
            <Array as="points">
              <mxPoint x="600" y="510" />
              <mxPoint x="540" y="510" />
              <mxPoint x="540" y="440" />
            </Array>
          </mxGeometry>
        </mxCell>
        <mxCell id="MkItr3fGSmLbSDY-v6VV-186" value="Add &amp; Norm" style="whiteSpace=wrap;align=center;verticalAlign=middle;fontStyle=0;strokeWidth=1;fillColor=#FFFFCC" vertex="1" parent="1">
          <mxGeometry x="560" y="520" width="80" height="20" as="geometry" />
        </mxCell>
        <mxCell id="MkItr3fGSmLbSDY-v6VV-187" style="edgeStyle=orthogonalEdgeStyle;rounded=0;orthogonalLoop=1;jettySize=auto;html=1;exitX=0.5;exitY=0;exitDx=0;exitDy=0;entryX=0.5;entryY=1;entryDx=0;entryDy=0;strokeWidth=1;endArrow=blockThin;endFill=1;fontStyle=0" edge="1" parent="1" source="MkItr3fGSmLbSDY-v6VV-188" target="MkItr3fGSmLbSDY-v6VV-186">
          <mxGeometry relative="1" as="geometry" />
        </mxCell>
        <mxCell id="MkItr3fGSmLbSDY-v6VV-188" value="Multi-Head Attention" style="whiteSpace=wrap;align=center;verticalAlign=middle;fontStyle=0;strokeWidth=1;fillColor=#fad7ac;strokeColor=#000000;" vertex="1" parent="1">
          <mxGeometry x="560" y="550" width="80" height="40" as="geometry" />
        </mxCell>
        <mxCell id="MkItr3fGSmLbSDY-v6VV-189" style="edgeStyle=orthogonalEdgeStyle;rounded=0;orthogonalLoop=1;jettySize=auto;html=1;exitX=0.5;exitY=0;exitDx=0;exitDy=0;strokeWidth=1;fontSize=20;endArrow=blockThin;endFill=1;fontStyle=0" edge="1" parent="1" target="MkItr3fGSmLbSDY-v6VV-188" source="MkItr3fGSmLbSDY-v6VV-201">
          <mxGeometry relative="1" as="geometry">
            <mxPoint x="600" y="630" as="sourcePoint" />
          </mxGeometry>
        </mxCell>
        <mxCell id="MkItr3fGSmLbSDY-v6VV-190" style="edgeStyle=orthogonalEdgeStyle;rounded=0;orthogonalLoop=1;jettySize=auto;html=1;exitX=0.5;exitY=0;exitDx=0;exitDy=0;entryX=0.75;entryY=1;entryDx=0;entryDy=0;strokeWidth=1;fontSize=20;endArrow=blockThin;endFill=1;fontStyle=0" edge="1" parent="1" target="MkItr3fGSmLbSDY-v6VV-188" source="MkItr3fGSmLbSDY-v6VV-201">
          <mxGeometry relative="1" as="geometry">
            <mxPoint x="600" y="630" as="sourcePoint" />
            <Array as="points">
              <mxPoint x="600" y="610" />
              <mxPoint x="620" y="610" />
            </Array>
          </mxGeometry>
        </mxCell>
        <mxCell id="MkItr3fGSmLbSDY-v6VV-191" style="edgeStyle=orthogonalEdgeStyle;rounded=0;orthogonalLoop=1;jettySize=auto;html=1;exitX=0.5;exitY=0;exitDx=0;exitDy=0;strokeWidth=1;fontSize=20;endArrow=blockThin;endFill=1;fontStyle=0" edge="1" parent="1" source="MkItr3fGSmLbSDY-v6VV-192" target="MkItr3fGSmLbSDY-v6VV-193">
          <mxGeometry relative="1" as="geometry" />
        </mxCell>
        <mxCell id="MkItr3fGSmLbSDY-v6VV-192" value="Feed Forward" style="whiteSpace=wrap;align=center;verticalAlign=middle;fontStyle=0;strokeWidth=1;fillColor=#CCFFFF;" vertex="1" parent="1">
          <mxGeometry x="560" y="460" width="80" height="40" as="geometry" />
        </mxCell>
        <mxCell id="MkItr3fGSmLbSDY-v6VV-208" style="edgeStyle=orthogonalEdgeStyle;rounded=0;orthogonalLoop=1;jettySize=auto;html=1;exitX=0.5;exitY=0;exitDx=0;exitDy=0;entryX=0.5;entryY=1;entryDx=0;entryDy=0;strokeWidth=1;fontSize=12;endArrow=blockThin;endFill=1;" edge="1" parent="1" source="MkItr3fGSmLbSDY-v6VV-193" target="MkItr3fGSmLbSDY-v6VV-171">
          <mxGeometry relative="1" as="geometry">
            <Array as="points">
              <mxPoint x="600" y="410" />
              <mxPoint x="676" y="410" />
              <mxPoint x="676" y="730" />
              <mxPoint x="752" y="730" />
            </Array>
          </mxGeometry>
        </mxCell>
        <mxCell id="MkItr3fGSmLbSDY-v6VV-193" value="Add &amp; Norm" style="whiteSpace=wrap;align=center;verticalAlign=middle;fontStyle=0;strokeWidth=1;fillColor=#FFFFCC" vertex="1" parent="1">
          <mxGeometry x="560" y="430" width="80" height="20" as="geometry" />
        </mxCell>
        <mxCell id="MkItr3fGSmLbSDY-v6VV-194" value="Transformer-Encoder" style="text;html=1;strokeColor=none;fillColor=none;align=center;verticalAlign=middle;whiteSpace=wrap;rounded=0;fontSize=12;horizontal=0;fontStyle=0" vertex="1" parent="1">
          <mxGeometry x="480" y="465" width="60" height="30" as="geometry" />
        </mxCell>
        <mxCell id="MkItr3fGSmLbSDY-v6VV-195" value="1x" style="text;html=1;strokeColor=none;fillColor=none;align=center;verticalAlign=middle;whiteSpace=wrap;rounded=0;fontSize=12;fontStyle=0" vertex="1" parent="1">
          <mxGeometry x="470" y="590" width="20" height="30" as="geometry" />
        </mxCell>
        <mxCell id="MkItr3fGSmLbSDY-v6VV-199" style="edgeStyle=orthogonalEdgeStyle;rounded=0;orthogonalLoop=1;jettySize=auto;html=1;exitX=0.5;exitY=0;exitDx=0;exitDy=0;entryX=0.5;entryY=1;entryDx=0;entryDy=0;fontSize=20;strokeWidth=1;endArrow=blockThin;endFill=1;fontStyle=0" edge="1" parent="1" source="MkItr3fGSmLbSDY-v6VV-200" target="MkItr3fGSmLbSDY-v6VV-203">
          <mxGeometry relative="1" as="geometry" />
        </mxCell>
        <mxCell id="MkItr3fGSmLbSDY-v6VV-200" value="Repeat" style="whiteSpace=wrap;align=center;verticalAlign=middle;fontStyle=0;strokeWidth=1;fillColor=#fad9d5;strokeColor=#000000;" vertex="1" parent="1">
          <mxGeometry x="560" y="730" width="80" height="30" as="geometry" />
        </mxCell>
        <mxCell id="MkItr3fGSmLbSDY-v6VV-206" style="edgeStyle=orthogonalEdgeStyle;rounded=0;orthogonalLoop=1;jettySize=auto;html=1;exitX=0.5;exitY=0;exitDx=0;exitDy=0;entryX=0.25;entryY=1;entryDx=0;entryDy=0;strokeWidth=1;fontSize=12;endArrow=blockThin;endFill=1;" edge="1" parent="1" source="MkItr3fGSmLbSDY-v6VV-201" target="MkItr3fGSmLbSDY-v6VV-188">
          <mxGeometry relative="1" as="geometry">
            <Array as="points">
              <mxPoint x="600" y="610" />
              <mxPoint x="580" y="610" />
            </Array>
          </mxGeometry>
        </mxCell>
        <mxCell id="MkItr3fGSmLbSDY-v6VV-207" style="edgeStyle=orthogonalEdgeStyle;rounded=0;orthogonalLoop=1;jettySize=auto;html=1;exitX=0.5;exitY=0;exitDx=0;exitDy=0;entryX=0;entryY=0.5;entryDx=0;entryDy=0;strokeWidth=1;fontSize=12;endArrow=blockThin;endFill=1;" edge="1" parent="1" source="MkItr3fGSmLbSDY-v6VV-201" target="MkItr3fGSmLbSDY-v6VV-186">
          <mxGeometry relative="1" as="geometry">
            <Array as="points">
              <mxPoint x="600" y="620" />
              <mxPoint x="540" y="620" />
              <mxPoint x="540" y="530" />
            </Array>
          </mxGeometry>
        </mxCell>
        <mxCell id="MkItr3fGSmLbSDY-v6VV-201" value="&lt;font style=&quot;font-size: 16px;&quot;&gt;+&lt;/font&gt;" style="ellipse;whiteSpace=wrap;html=1;aspect=fixed;strokeColor=#000000;strokeWidth=1;fontStyle=0" vertex="1" parent="1">
          <mxGeometry x="590" y="640" width="20" height="20" as="geometry" />
        </mxCell>
        <mxCell id="MkItr3fGSmLbSDY-v6VV-202" style="edgeStyle=orthogonalEdgeStyle;rounded=0;orthogonalLoop=1;jettySize=auto;html=1;exitX=0.5;exitY=0;exitDx=0;exitDy=0;fontSize=20;strokeWidth=1;endArrow=blockThin;endFill=1;fontStyle=0" edge="1" parent="1" source="MkItr3fGSmLbSDY-v6VV-203" target="MkItr3fGSmLbSDY-v6VV-201">
          <mxGeometry relative="1" as="geometry" />
        </mxCell>
        <mxCell id="MkItr3fGSmLbSDY-v6VV-203" value="Positional Encoding" style="whiteSpace=wrap;align=center;verticalAlign=middle;fontStyle=0;strokeWidth=1;fillColor=#fad9d5;strokeColor=#000000;" vertex="1" parent="1">
          <mxGeometry x="560" y="680" width="80" height="30" as="geometry" />
        </mxCell>
        <mxCell id="MkItr3fGSmLbSDY-v6VV-204" value="" style="edgeStyle=segmentEdgeStyle;endArrow=blockThin;html=1;curved=0;rounded=0;endSize=8;startSize=8;fontSize=20;exitX=0.5;exitY=0;exitDx=0;exitDy=0;entryX=0;entryY=0.5;entryDx=0;entryDy=0;strokeWidth=1;endFill=1;fontStyle=0" edge="1" parent="1" source="MkItr3fGSmLbSDY-v6VV-200" target="MkItr3fGSmLbSDY-v6VV-201">
          <mxGeometry width="50" height="50" relative="1" as="geometry">
            <mxPoint x="600" y="770" as="sourcePoint" />
            <mxPoint x="800" y="750" as="targetPoint" />
            <Array as="points">
              <mxPoint x="600" y="720" />
              <mxPoint x="540" y="720" />
              <mxPoint x="540" y="650" />
            </Array>
          </mxGeometry>
        </mxCell>
        <mxCell id="MkItr3fGSmLbSDY-v6VV-210" value="H&lt;sub&gt;LANG&lt;/sub&gt;, H&lt;sub style=&quot;border-color: var(--border-color);&quot;&gt;1&lt;/sub&gt;, H&lt;sub style=&quot;border-color: var(--border-color);&quot;&gt;1&lt;/sub&gt;, H&lt;sub style=&quot;border-color: var(--border-color);&quot;&gt;1&lt;/sub&gt;, H&lt;sub style=&quot;border-color: var(--border-color);&quot;&gt;2&lt;/sub&gt;, H&lt;sub style=&quot;border-color: var(--border-color);&quot;&gt;2&lt;/sub&gt;, H&lt;sub style=&quot;border-color: var(--border-color);&quot;&gt;2&lt;/sub&gt;,&amp;nbsp;..., H&lt;sub style=&quot;border-color: var(--border-color);&quot;&gt;n&lt;/sub&gt;, H&lt;sub style=&quot;border-color: var(--border-color);&quot;&gt;n&lt;/sub&gt;, H&lt;sub style=&quot;border-color: var(--border-color);&quot;&gt;n&lt;/sub&gt;, H&lt;sub&gt;END&lt;/sub&gt;" style="text;html=1;strokeColor=none;fillColor=none;align=center;verticalAlign=middle;whiteSpace=wrap;rounded=0;fontSize=12;" vertex="1" parent="1">
          <mxGeometry x="500" y="790" width="200" height="30" as="geometry" />
        </mxCell>
        <mxCell id="MkItr3fGSmLbSDY-v6VV-211" value="H&lt;sub&gt;LANG&lt;/sub&gt;, H&lt;sub style=&quot;border-color: var(--border-color);&quot;&gt;1&lt;/sub&gt;, H&lt;sub style=&quot;border-color: var(--border-color);&quot;&gt;2&lt;/sub&gt;,&amp;nbsp;..., H&lt;sub style=&quot;border-color: var(--border-color);&quot;&gt;n&lt;/sub&gt;, H&lt;sub&gt;END&lt;/sub&gt;" style="text;html=1;strokeColor=none;fillColor=none;align=center;verticalAlign=middle;whiteSpace=wrap;rounded=0;fontSize=12;" vertex="1" parent="1">
          <mxGeometry x="260" y="460" width="200" height="30" as="geometry" />
        </mxCell>
      </root>
    </mxGraphModel>
  </diagram>
</mxfile>
